<?xml version="1.0" encoding="UTF-8" standalone="no"?>
<!-- Created with Inkscape (http://www.inkscape.org/) -->

<svg
   xmlns:dc="http://purl.org/dc/elements/1.1/"
   xmlns:cc="http://creativecommons.org/ns#"
   xmlns:rdf="http://www.w3.org/1999/02/22-rdf-syntax-ns#"
   xmlns:svg="http://www.w3.org/2000/svg"
   xmlns="http://www.w3.org/2000/svg"
   xmlns:sodipodi="http://sodipodi.sourceforge.net/DTD/sodipodi-0.dtd"
   xmlns:inkscape="http://www.inkscape.org/namespaces/inkscape"
   version="1.1"
   id="svg2"
   xml:space="preserve"
   width="816"
   height="550"
   viewBox="0 0 816 550"
   sodipodi:docname="define local clustering.svg"
   inkscape:version="0.92.3 (2405546, 2018-03-11)"><metadata
     id="metadata8"><rdf:RDF><cc:Work
         rdf:about=""><dc:format>image/svg+xml</dc:format><dc:type
           rdf:resource="http://purl.org/dc/dcmitype/StillImage" /><dc:title></dc:title></cc:Work></rdf:RDF></metadata><defs
     id="defs6"><clipPath
       clipPathUnits="userSpaceOnUse"
       id="clipPath18"><path
         d="M 0,792 H 612 V 0 H 0 Z"
         id="path16"
         inkscape:connector-curvature="0" /></clipPath></defs><sodipodi:namedview
     pagecolor="#ffffff"
     bordercolor="#666666"
     borderopacity="1"
     objecttolerance="10"
     gridtolerance="10"
     guidetolerance="10"
     inkscape:pageopacity="0"
     inkscape:pageshadow="2"
     inkscape:window-width="1366"
     inkscape:window-height="745"
     id="namedview4"
     showgrid="false"
     inkscape:zoom="0.63211061"
     inkscape:cx="481.01968"
     inkscape:cy="400.38919"
     inkscape:window-x="-8"
     inkscape:window-y="-8"
     inkscape:window-maximized="1"
     inkscape:current-layer="g10" /><g
     id="g10"
     inkscape:groupmode="layer"
     inkscape:label="define local clustering"
     transform="matrix(1.3333333,0,0,-1.3333333,0,550)"><g
       id="g12"
       transform="matrix(1.2376545,0,0,1.3174542,-69.54556,-616.55307)"><g
         id="g14"
         clip-path="url(#clipPath18)"><path
   d="M 181.803,611.191 215.264,552.55"
   style="fill:none;stroke:#544b4a;stroke-width:1;stroke-linecap:butt;stroke-linejoin:miter;stroke-miterlimit:4;stroke-dasharray:none;stroke-opacity:1"
   id="path20"
   inkscape:connector-curvature="0" /><path
   d="M 170.26,611.191 136.573,552.55"
   style="fill:none;stroke:#544b4a;stroke-width:1;stroke-linecap:butt;stroke-linejoin:miter;stroke-miterlimit:4;stroke-dasharray:none;stroke-opacity:1"
   id="path22"
   inkscape:connector-curvature="0" /><path
   d="M 164.213,621.508 H 96.602"
   style="fill:none;stroke:#070606;stroke-width:1;stroke-linecap:butt;stroke-linejoin:miter;stroke-miterlimit:4;stroke-dasharray:none;stroke-opacity:1"
   id="path24"
   inkscape:connector-curvature="0" /><path
   d="m 181.691,631.746 32.754,59.257"
   style="fill:none;stroke:#070606;stroke-width:1;stroke-linecap:butt;stroke-linejoin:miter;stroke-miterlimit:10;stroke-dasharray:none;stroke-opacity:1"
   id="path26"
   inkscape:connector-curvature="0" /><path
   d="m 187.852,621.508 h 67.621"
   style="fill:none;stroke:#070606;stroke-width:1;stroke-linecap:butt;stroke-linejoin:miter;stroke-miterlimit:4;stroke-dasharray:none;stroke-opacity:1"
   id="path28"
   inkscape:connector-curvature="0" /><path
   d="m 170.127,631.746 -33.81,58.565"
   style="fill:none;stroke:#070606;stroke-width:1;stroke-linecap:butt;stroke-linejoin:miter;stroke-miterlimit:4;stroke-dasharray:none;stroke-opacity:1"
   id="path30"
   inkscape:connector-curvature="0" /><path
   d="m 187.852,621.508 c 0,6.527 -5.294,11.818 -11.819,11.818 -6.529,0 -11.822,-5.291 -11.822,-11.818 0,-6.528 5.293,-11.818 11.822,-11.818 6.525,0 11.819,5.29 11.819,11.818"
   style="fill:#726965;fill-opacity:1;fill-rule:nonzero;stroke:none"
   id="path32"
   inkscape:connector-curvature="0" /><path
   d="m 279.109,621.508 c 0,6.527 -5.288,11.818 -11.817,11.818 -6.531,0 -11.822,-5.291 -11.822,-11.818 0,-6.528 5.291,-11.826 11.822,-11.826 6.529,0 11.817,5.298 11.817,11.826"
   style="fill:#cdc9c0;fill-opacity:1;fill-rule:nonzero;stroke:none"
   id="path34"
   inkscape:connector-curvature="0" /><path
   d="m 233.239,542.479 c 0,6.528 -5.287,11.818 -11.816,11.818 -6.526,0 -11.82,-5.29 -11.82,-11.818 0,-6.527 5.294,-11.822 11.82,-11.822 6.529,0 11.816,5.295 11.816,11.822"
   style="fill:#cdc9c0;fill-opacity:1;fill-rule:nonzero;stroke:none"
   id="path36"
   inkscape:connector-curvature="0" /><path
   d="m 142.216,542.479 c 0,6.528 -5.289,11.818 -11.816,11.818 -6.53,0 -11.822,-5.29 -11.822,-11.818 0,-6.527 5.292,-11.822 11.822,-11.822 6.527,0 11.816,5.295 11.816,11.822"
   style="fill:#cdc9c0;fill-opacity:1;fill-rule:nonzero;stroke:none"
   id="path38"
   inkscape:connector-curvature="0" /><path
   d="m 96.602,621.508 c 0,6.527 -5.289,11.818 -11.818,11.818 -6.525,0 -11.823,-5.291 -11.823,-11.818 0,-6.528 5.298,-11.826 11.823,-11.826 6.529,0 11.818,5.298 11.818,11.826"
   style="fill:#cdc9c0;fill-opacity:1;fill-rule:nonzero;stroke:none"
   id="path40"
   inkscape:connector-curvature="0" /><path
   d="m 233.239,700.536 c 0,6.527 -5.287,11.818 -11.816,11.818 -6.526,0 -11.82,-5.291 -11.82,-11.818 0,-6.527 5.294,-11.822 11.82,-11.822 6.529,0 11.816,5.295 11.816,11.822"
   style="fill:#cdc9c0;fill-opacity:1;fill-rule:nonzero;stroke:none"
   id="path42"
   inkscape:connector-curvature="0" /><path
   d="m 142.216,700.528 c 0,6.529 -5.289,11.817 -11.816,11.817 -6.53,0 -11.822,-5.288 -11.822,-11.817 0,-6.528 5.292,-11.818 11.822,-11.818 6.527,0 11.816,5.29 11.816,11.818"
   style="fill:#cdc9c0;fill-opacity:1;fill-rule:nonzero;stroke:none"
   id="path44"
   inkscape:connector-curvature="0" /><text
   transform="matrix(1,0,0,-1,372.9736,480.4268)"
   style="font-variant:normal;font-weight:normal;font-stretch:normal;font-size:16px;font-family:Arial;-inkscape-font-specification:ArialMT;writing-mode:lr-tb;fill:#544b4a;fill-opacity:1;fill-rule:nonzero;stroke:none"
   id="text48"><tspan
     x="0 8.8959999 12.448 21.344 29.344 38.240002 42.688 51.584 60.48 64.928001 72.928001 76.480003 85.375999 93.375999 97.823997 106.72 112.048 115.6 124.496"
     y="0"
     sodipodi:role="line"
     id="tspan46">elevated clustering</tspan></text>

<path
   d="m 388.643,546.957 c -19.58,106.019 15.968,131.961 79.545,155.287"
   style="fill:none;stroke:#070606;stroke-width:1;stroke-linecap:butt;stroke-linejoin:miter;stroke-miterlimit:4;stroke-dasharray:none;stroke-opacity:1"
   id="path50"
   inkscape:connector-curvature="0" /><path
   d="m 479.582,545.579 41.471,68.06"
   style="fill:none;stroke:#070606;stroke-width:1;stroke-linecap:butt;stroke-linejoin:miter;stroke-miterlimit:4;stroke-dasharray:none;stroke-opacity:1"
   id="path52"
   inkscape:connector-curvature="0" /><path
   d="M 479.582,545.579 H 400.373"
   style="fill:none;stroke:#544b4a;stroke-width:1;stroke-linecap:butt;stroke-linejoin:miter;stroke-miterlimit:4;stroke-dasharray:none;stroke-opacity:1"
   id="path54"
   inkscape:connector-curvature="0" /><path
   d="m 388.557,545.579 -38.986,69.239"
   style="fill:none;stroke:#070606;stroke-width:1;stroke-linecap:butt;stroke-linejoin:miter;stroke-miterlimit:4;stroke-dasharray:none;stroke-opacity:1"
   id="path56"
   inkscape:connector-curvature="0" /><path
   d="m 342.941,624.604 38.63,69.501"
   style="fill:none;stroke:#070606;stroke-width:1;stroke-linecap:butt;stroke-linejoin:miter;stroke-miterlimit:4;stroke-dasharray:none;stroke-opacity:1"
   id="path58"
   inkscape:connector-curvature="0" /><path
   d="M 479.582,703.627 H 400.373"
   style="fill:none;stroke:#070606;stroke-width:1;stroke-linecap:butt;stroke-linejoin:miter;stroke-miterlimit:4;stroke-dasharray:none;stroke-opacity:1"
   id="path60"
   inkscape:connector-curvature="0" /><path
   d="m 525.448,624.607 -38.892,69.497"
   style="fill:none;stroke:#070606;stroke-width:1;stroke-linecap:butt;stroke-linejoin:miter;stroke-miterlimit:4;stroke-dasharray:none;stroke-opacity:1"
   id="path62"
   inkscape:connector-curvature="0" /><path
   d="m 439.961,614.29 33.46,-58.641"
   style="fill:none;stroke:#544b4a;stroke-width:1;stroke-linecap:butt;stroke-linejoin:miter;stroke-miterlimit:4;stroke-dasharray:none;stroke-opacity:1"
   id="path64"
   inkscape:connector-curvature="0" /><path
   d="M 428.416,614.29 394.731,555.649"
   style="fill:none;stroke:#544b4a;stroke-width:1;stroke-linecap:butt;stroke-linejoin:miter;stroke-miterlimit:4;stroke-dasharray:none;stroke-opacity:1"
   id="path66"
   inkscape:connector-curvature="0" /><path
   d="M 422.371,624.607 H 354.758"
   style="fill:none;stroke:#070606;stroke-width:1;stroke-linecap:butt;stroke-linejoin:miter;stroke-miterlimit:4;stroke-dasharray:none;stroke-opacity:1"
   id="path68"
   inkscape:connector-curvature="0" /><path
   d="m 439.848,634.845 32.756,59.259"
   style="fill:none;stroke:#070606;stroke-width:1;stroke-linecap:butt;stroke-linejoin:miter;stroke-miterlimit:10;stroke-dasharray:none;stroke-opacity:1"
   id="path70"
   inkscape:connector-curvature="0" /><path
   d="M 446.008,624.607 H 513.63"
   style="fill:none;stroke:#070606;stroke-width:1;stroke-linecap:butt;stroke-linejoin:miter;stroke-miterlimit:4;stroke-dasharray:none;stroke-opacity:1"
   id="path72"
   inkscape:connector-curvature="0" /><path
   d="m 428.284,634.845 -33.808,58.566"
   style="fill:none;stroke:#070606;stroke-width:1;stroke-linecap:butt;stroke-linejoin:miter;stroke-miterlimit:4;stroke-dasharray:none;stroke-opacity:1"
   id="path74"
   inkscape:connector-curvature="0" /><path
   d="m 446.008,624.607 c 0,6.527 -5.291,11.818 -11.818,11.818 -6.529,0 -11.822,-5.291 -11.822,-11.818 0,-6.527 5.293,-11.818 11.822,-11.818 6.527,0 11.818,5.291 11.818,11.818"
   style="fill:#726965;fill-opacity:1;fill-rule:nonzero;stroke:none"
   id="path76"
   inkscape:connector-curvature="0" /><path
   d="m 537.268,624.607 c 0,6.527 -5.289,11.818 -11.819,11.818 -6.532,0 -11.822,-5.291 -11.822,-11.818 0,-6.527 5.29,-11.826 11.822,-11.826 6.53,0 11.819,5.299 11.819,11.826"
   style="fill:#cdc9c0;fill-opacity:1;fill-rule:nonzero;stroke:none"
   id="path78"
   inkscape:connector-curvature="0" /><path
   d="m 491.398,545.579 c 0,6.527 -5.289,11.818 -11.818,11.818 -6.526,0 -11.82,-5.291 -11.82,-11.818 0,-6.527 5.294,-11.823 11.82,-11.823 6.529,0 11.818,5.296 11.818,11.823"
   style="fill:#cdc9c0;fill-opacity:1;fill-rule:nonzero;stroke:none"
   id="path80"
   inkscape:connector-curvature="0" /><path
   d="m 400.373,545.579 c 0,6.527 -5.288,11.818 -11.816,11.818 -6.529,0 -11.822,-5.291 -11.822,-11.818 0,-6.527 5.293,-11.823 11.822,-11.823 6.528,0 11.816,5.296 11.816,11.823"
   style="fill:#cdc9c0;fill-opacity:1;fill-rule:nonzero;stroke:none"
   id="path82"
   inkscape:connector-curvature="0" /><path
   d="m 354.758,624.607 c 0,6.527 -5.287,11.818 -11.817,11.818 -6.524,0 -11.822,-5.291 -11.822,-11.818 0,-6.527 5.298,-11.826 11.822,-11.826 6.53,0 11.817,5.299 11.817,11.826"
   style="fill:#cdc9c0;fill-opacity:1;fill-rule:nonzero;stroke:none"
   id="path84"
   inkscape:connector-curvature="0" /><path
   d="m 491.398,703.635 c 0,6.528 -5.289,11.818 -11.818,11.818 -6.526,0 -11.82,-5.29 -11.82,-11.818 0,-6.527 5.294,-11.822 11.82,-11.822 6.529,0 11.818,5.295 11.818,11.822"
   style="fill:#cdc9c0;fill-opacity:1;fill-rule:nonzero;stroke:none"
   id="path86"
   inkscape:connector-curvature="0" /><path
   d="m 400.373,703.627 c 0,6.529 -5.288,11.818 -11.816,11.818 -6.529,0 -11.822,-5.289 -11.822,-11.818 0,-6.526 5.293,-11.818 11.822,-11.818 6.528,0 11.816,5.292 11.816,11.818"
   style="fill:#cdc9c0;fill-opacity:1;fill-rule:nonzero;stroke:none"
   id="path88"
   inkscape:connector-curvature="0" /><text
   transform="matrix(1,0,0,-1,125.0664,481.4951)"
   style="font-variant:normal;font-weight:normal;font-stretch:normal;font-size:16px;font-family:Arial;-inkscape-font-specification:ArialMT;writing-mode:lr-tb;fill:#544b4a;fill-opacity:1;fill-rule:nonzero;stroke:none"
   id="text92"><tspan
     x="0 8 16.896 22.224001 31.120001 35.568001 43.568001 47.119999 56.015999 64.015999 68.463997 77.360001 82.688004 86.239998 95.136002"
     y="0"
     sodipodi:role="line"
     id="tspan90">zero clustering</tspan></text>

<text
   transform="matrix(1,0,0,-1,113.8096,753.3979)"
   style="font-variant:normal;font-weight:bold;font-stretch:normal;font-size:16px;font-family:Arial;-inkscape-font-specification:Arial-BoldMT;writing-mode:lr-tb;fill:#544b4a;fill-opacity:1;fill-rule:nonzero;stroke:none"
   id="text96"><tspan
     x="0 4.448 14.224 23.120001 32.015999 36.464001 40.911999 49.807999 54.256001 64.031998 72.928001 78.255997 87.152 93.375999 97.823997 107.6"
     y="0"
     sodipodi:role="line"
     id="tspan94">local clustering</tspan></text>

<text
   transform="matrix(1,0,0,-1,231.1768,753.3979)"
   style="font-variant:normal;font-weight:normal;font-stretch:normal;font-size:16px;font-family:Arial;-inkscape-font-specification:ArialMT;writing-mode:lr-tb;fill:#544b4a;fill-opacity:1;fill-rule:nonzero;stroke:none"
   id="text100"><tspan
     x="0 4.448 8.8959999 17.792 26.688 31.136 39.136002 48.032001 56.928001 62.256001 66.704002 75.599998 84.496002 88.047997 96.944 105.84 114.736 123.632 128.96001 136.96001 141.408 149.408 158.304 167.2 178.752 183.2 192.09599 200.992 208.992 217.888 222.336 231.23199 235.67999 244.576 253.472"
     y="0"
     sodipodi:role="line"
     id="tspan98">: do your neighbors know each other</tspan></text>

</g></g></g></svg>