<?xml version="1.0" encoding="UTF-8" standalone="no"?>
<!-- Created with Inkscape (http://www.inkscape.org/) -->

<svg
   xmlns:dc="http://purl.org/dc/elements/1.1/"
   xmlns:cc="http://creativecommons.org/ns#"
   xmlns:rdf="http://www.w3.org/1999/02/22-rdf-syntax-ns#"
   xmlns:svg="http://www.w3.org/2000/svg"
   xmlns="http://www.w3.org/2000/svg"
   xmlns:sodipodi="http://sodipodi.sourceforge.net/DTD/sodipodi-0.dtd"
   xmlns:inkscape="http://www.inkscape.org/namespaces/inkscape"
   version="1.1"
   id="svg2"
   xml:space="preserve"
   width="816"
   height="729"
   viewBox="0 0 816 729"
   sodipodi:docname="sync summary large panel.svg"
   inkscape:version="0.92.3 (2405546, 2018-03-11)"><metadata
     id="metadata8"><rdf:RDF><cc:Work
         rdf:about=""><dc:format>image/svg+xml</dc:format><dc:type
           rdf:resource="http://purl.org/dc/dcmitype/StillImage" /><dc:title></dc:title></cc:Work></rdf:RDF></metadata><defs
     id="defs6"><clipPath
       clipPathUnits="userSpaceOnUse"
       id="clipPath18"><path
         d="M 0,792 H 612 V 0 H 0 Z"
         id="path16"
         inkscape:connector-curvature="0" /></clipPath><clipPath
       clipPathUnits="userSpaceOnUse"
       id="clipPath106"><path
         d="m 414.505,680.557 h 29.641 v -29.645 h -29.641 z"
         id="path104"
         inkscape:connector-curvature="0" /></clipPath><clipPath
       clipPathUnits="userSpaceOnUse"
       id="clipPath120"><path
         d="m 543.672,680.557 h 29.642 v -29.645 h -29.642 z"
         id="path118"
         inkscape:connector-curvature="0" /></clipPath></defs><sodipodi:namedview
     pagecolor="#ffffff"
     bordercolor="#666666"
     borderopacity="1"
     objecttolerance="10"
     gridtolerance="10"
     guidetolerance="10"
     inkscape:pageopacity="0"
     inkscape:pageshadow="2"
     inkscape:window-width="751"
     inkscape:window-height="718"
     id="namedview4"
     showgrid="false"
     inkscape:zoom="0.63211061"
     inkscape:cx="433.88643"
     inkscape:cy="387.47659"
     inkscape:window-x="35"
     inkscape:window-y="11"
     inkscape:window-maximized="0"
     inkscape:current-layer="g10" /><g
     id="g10"
     inkscape:groupmode="layer"
     inkscape:label="sync summary"
     transform="matrix(1.3333333,0,0,-1.3333333,0,729)"><g
       id="g12"
       transform="translate(13.423729,-243.30509)"><g
         id="g14"
         clip-path="url(#clipPath18)"><path
           d="m 91.254,362.275 v 5.293 m 0,-5.293 v 407.666 m 0,-407.666 h 322.095"
           style="fill:none;stroke:#231f20;stroke-width:0.5;stroke-linecap:butt;stroke-linejoin:round;stroke-miterlimit:10;stroke-dasharray:none;stroke-opacity:1"
           id="path20"
           inkscape:connector-curvature="0" /><text
           transform="matrix(1,0,0,-1,61.792,341.4766)"
           style="font-variant:normal;font-weight:normal;font-stretch:normal;font-size:24px;font-family:'Myriad Pro';-inkscape-font-specification:Helvetica;writing-mode:lr-tb;fill:#231f20;fill-opacity:1;fill-rule:nonzero;stroke:none"
           id="text24"><tspan
             x="0 14.304 26.615999"
             y="0"
             sodipodi:role="line"
             id="tspan22">−20</tspan></text>
<path
           d="m 131.503,362.275 v 5.293"
           style="fill:none;stroke:#231f20;stroke-width:0.5;stroke-linecap:butt;stroke-linejoin:round;stroke-miterlimit:10;stroke-dasharray:none;stroke-opacity:1"
           id="path26"
           inkscape:connector-curvature="0" /><path
           d="m 171.754,362.275 v 5.293"
           style="fill:none;stroke:#231f20;stroke-width:0.5;stroke-linecap:butt;stroke-linejoin:round;stroke-miterlimit:10;stroke-dasharray:none;stroke-opacity:1"
           id="path28"
           inkscape:connector-curvature="0" /><text
           transform="matrix(1,0,0,-1,141.3623,341.4766)"
           style="font-variant:normal;font-weight:normal;font-stretch:normal;font-size:24px;font-family:'Myriad Pro';-inkscape-font-specification:Helvetica;writing-mode:lr-tb;fill:#231f20;fill-opacity:1;fill-rule:nonzero;stroke:none"
           id="text32"><tspan
             x="0 14.304 26.615999"
             y="0"
             sodipodi:role="line"
             id="tspan30">−10</tspan></text>
<path
           d="m 212.008,362.275 v 5.293"
           style="fill:none;stroke:#231f20;stroke-width:0.5;stroke-linecap:butt;stroke-linejoin:round;stroke-miterlimit:10;stroke-dasharray:none;stroke-opacity:1"
           id="path34"
           inkscape:connector-curvature="0" /><path
           d="m 252.262,362.275 v 5.293"
           style="fill:none;stroke:#231f20;stroke-width:0.5;stroke-linecap:butt;stroke-linejoin:round;stroke-miterlimit:10;stroke-dasharray:none;stroke-opacity:1"
           id="path36"
           inkscape:connector-curvature="0" /><text
           transform="matrix(1,0,0,-1,248.2979,341.4795)"
           style="font-variant:normal;font-weight:normal;font-stretch:normal;font-size:24px;font-family:'Myriad Pro';-inkscape-font-specification:Helvetica;writing-mode:lr-tb;fill:#231f20;fill-opacity:1;fill-rule:nonzero;stroke:none"
           id="text40"><tspan
             x="0"
             y="0"
             id="tspan38">0</tspan></text>
<path
           d="m 292.512,362.275 v 5.293"
           style="fill:none;stroke:#231f20;stroke-width:0.5;stroke-linecap:butt;stroke-linejoin:round;stroke-miterlimit:10;stroke-dasharray:none;stroke-opacity:1"
           id="path42"
           inkscape:connector-curvature="0" /><path
           d="m 332.76,362.275 v 5.293"
           style="fill:none;stroke:#231f20;stroke-width:0.5;stroke-linecap:butt;stroke-linejoin:round;stroke-miterlimit:10;stroke-dasharray:none;stroke-opacity:1"
           id="path44"
           inkscape:connector-curvature="0" /><text
           transform="matrix(1,0,0,-1,325.4639,341.4766)"
           style="font-variant:normal;font-weight:normal;font-stretch:normal;font-size:24px;font-family:'Myriad Pro';-inkscape-font-specification:Helvetica;writing-mode:lr-tb;fill:#231f20;fill-opacity:1;fill-rule:nonzero;stroke:none"
           id="text48"><tspan
             x="0 12.312"
             y="0"
             sodipodi:role="line"
             id="tspan46">10</tspan></text>
<path
           d="m 373.014,362.275 v 5.293"
           style="fill:none;stroke:#231f20;stroke-width:0.5;stroke-linecap:butt;stroke-linejoin:round;stroke-miterlimit:10;stroke-dasharray:none;stroke-opacity:1"
           id="path50"
           inkscape:connector-curvature="0" /><path
           d="m 413.349,362.275 v 5.293"
           style="fill:none;stroke:#231f20;stroke-width:0.5;stroke-linecap:butt;stroke-linejoin:round;stroke-miterlimit:10;stroke-dasharray:none;stroke-opacity:1"
           id="path52"
           inkscape:connector-curvature="0" /><text
           transform="matrix(1,0,0,-1,406.0459,341.4766)"
           style="font-variant:normal;font-weight:normal;font-stretch:normal;font-size:24px;font-family:'Myriad Pro';-inkscape-font-specification:Helvetica;writing-mode:lr-tb;fill:#231f20;fill-opacity:1;fill-rule:nonzero;stroke:none"
           id="text56"><tspan
             x="0 12.312"
             y="0"
             sodipodi:role="line"
             id="tspan54">20</tspan></text>
<path
           d="m 91.254,362.275 h 3.217"
           style="fill:none;stroke:#231f20;stroke-width:0.5;stroke-linecap:butt;stroke-linejoin:round;stroke-miterlimit:10;stroke-dasharray:none;stroke-opacity:1"
           id="path58"
           inkscape:connector-curvature="0" /><path
           d="m 91.254,430.266 h 3.217"
           style="fill:none;stroke:#231f20;stroke-width:0.5;stroke-linecap:butt;stroke-linejoin:round;stroke-miterlimit:10;stroke-dasharray:none;stroke-opacity:1"
           id="path60"
           inkscape:connector-curvature="0" /><path
           d="m 91.254,498.121 h 3.217"
           style="fill:none;stroke:#231f20;stroke-width:0.5;stroke-linecap:butt;stroke-linejoin:round;stroke-miterlimit:10;stroke-dasharray:none;stroke-opacity:1"
           id="path62"
           inkscape:connector-curvature="0" /><path
           d="m 91.254,566.109 h 3.217"
           style="fill:none;stroke:#231f20;stroke-width:0.5;stroke-linecap:butt;stroke-linejoin:round;stroke-miterlimit:10;stroke-dasharray:none;stroke-opacity:1"
           id="path64"
           inkscape:connector-curvature="0" /><path
           d="m 91.254,634.098 h 3.217"
           style="fill:none;stroke:#231f20;stroke-width:0.5;stroke-linecap:butt;stroke-linejoin:round;stroke-miterlimit:10;stroke-dasharray:none;stroke-opacity:1"
           id="path66"
           inkscape:connector-curvature="0" /><path
           d="m 91.254,701.953 h 3.217"
           style="fill:none;stroke:#231f20;stroke-width:0.5;stroke-linecap:butt;stroke-linejoin:round;stroke-miterlimit:10;stroke-dasharray:none;stroke-opacity:1"
           id="path68"
           inkscape:connector-curvature="0" /><path
           d="m 91.254,769.809 h 3.217"
           style="fill:none;stroke:#231f20;stroke-width:0.5;stroke-linecap:butt;stroke-linejoin:round;stroke-miterlimit:10;stroke-dasharray:none;stroke-opacity:1"
           id="path70"
           inkscape:connector-curvature="0" /><path
           d="m 99.251,386.615 16.085,13.359 16.167,11.508 16.084,17.725 16.084,12.564 16.086,10.318 16.167,14.022 16.084,6.614 16.084,27.776 16.087,52.115 16.165,174.602 16.084,-54.63 16.084,-55.82 16.081,-26.322 16.172,-37.83 16.081,-37.699 16.081,-29.099 16.087,-25.661 16.166,-32.537 16.084,-24.867"
           style="fill:none;stroke:#5182cb;stroke-width:2;stroke-linecap:butt;stroke-linejoin:miter;stroke-miterlimit:4;stroke-dasharray:none;stroke-opacity:1"
           id="path72"
           inkscape:connector-curvature="0" /><path
           d="m 99.251,427.354 16.085,6.216 16.167,19.975 16.084,17.858 16.084,14.153 16.086,9.39 16.167,2.116 16.084,21.165 16.084,33.73 16.087,75.659 16.165,-8.2 16.084,-65.608 16.084,-35.32 16.081,-9.258 16.172,-5.685 16.081,-12.962 16.081,-15.082 16.087,-12.567 16.166,-18.648 16.084,-19.707"
           style="fill:none;stroke:#231f20;stroke-width:2;stroke-linecap:butt;stroke-linejoin:round;stroke-miterlimit:10;stroke-dasharray:6, 6;stroke-dashoffset:0;stroke-opacity:1"
           id="path74"
           inkscape:connector-curvature="0" /><text
           transform="matrix(1,0,0,-1,89.5981,303.8809)"
           style="font-variant:normal;font-weight:normal;font-stretch:normal;font-size:24px;font-family:Arial;-inkscape-font-specification:ArialMT;writing-mode:lr-tb;fill:#110f0d;fill-opacity:1;fill-rule:nonzero;stroke:none"
           id="text78"><tspan
             x="0 13.344 18.672001 25.344 32.015999 45.360001 53.352001 66.695999 80.040001 92.040001 105.384 112.056 117.384 130.728 137.39999 150.744 158.73599 172.08 184.08 196.08 209.424 222.79201 236.136 242.808 248.136 260.13599 266.80801 273.48001 278.80801 298.79999 304.12799 317.47198"
             y="0"
             sodipodi:role="line"
             id="tspan76">difference in presynaptic timing</tspan></text>
<text
           transform="matrix(1,0,0,-1,195.0005,269.1768)"
           style="font-variant:normal;font-weight:normal;font-stretch:normal;font-size:28.92000008px;font-family:Arial;-inkscape-font-specification:ArialMT;writing-mode:lr-tb;fill:#110f0d;fill-opacity:1;fill-rule:nonzero;stroke:none"
           id="text82"><tspan
             x="0"
             y="0"
             id="tspan80">t</tspan></text>
<text
           transform="matrix(1,0,0,-1,203.0352,263.1768)"
           style="font-variant:normal;font-weight:normal;font-stretch:normal;font-size:20px;font-family:Arial;-inkscape-font-specification:ArialMT;writing-mode:lr-tb;fill:#110f0d;fill-opacity:1;fill-rule:nonzero;stroke:none"
           id="text86"><tspan
             x="0"
             y="0"
             id="tspan84">2</tspan></text>
<text
           transform="matrix(1,0,0,-1,222.19796,269.1768)"
           style="font-variant:normal;font-weight:normal;font-stretch:normal;font-size:28.92000008px;font-family:Arial;-inkscape-font-specification:ArialMT;writing-mode:lr-tb;fill:#110f0d;fill-opacity:1;fill-rule:nonzero;stroke:none"
           id="text90"><tspan
             x="0 9.6303596 17.67012"
             y="0"
             sodipodi:role="line"
             id="tspan88">- t</tspan></text>
<text
           transform="matrix(1,0,0,-1,247.8936,263.1768)"
           style="font-variant:normal;font-weight:normal;font-stretch:normal;font-size:20px;font-family:Arial;-inkscape-font-specification:ArialMT;writing-mode:lr-tb;fill:#110f0d;fill-opacity:1;fill-rule:nonzero;stroke:none"
           id="text94"><tspan
             x="0"
             y="0"
             id="tspan92">1</tspan></text>
<text
           transform="matrix(1,0,0,-1,267.0518,269.1768)"
           style="font-variant:normal;font-weight:normal;font-stretch:normal;font-size:24px;font-family:Arial;-inkscape-font-specification:ArialMT;writing-mode:lr-tb;fill:#110f0d;fill-opacity:1;fill-rule:nonzero;stroke:none"
           id="text98"><tspan
             x="0 7.9920001 27.983999 39.984001"
             y="0"
             sodipodi:role="line"
             id="tspan96">(ms)</tspan></text>
<g
           id="g100"><g
             id="g102" /><g
             id="g112"><g
               clip-path="url(#clipPath106)"
               id="g110"
               style="opacity:0.5"><path
                 d="m 414.505,665.737 c 0,-8.185 6.631,-14.825 14.813,-14.825 8.192,0 14.828,6.64 14.828,14.825 0,8.184 -6.636,14.82 -14.828,14.82 -8.182,0 -14.813,-6.636 -14.813,-14.82"
                 style="fill:#5182cb;fill-opacity:1;fill-rule:nonzero;stroke:none"
                 id="path108"
                 inkscape:connector-curvature="0" /></g></g></g><g
           id="g114"><g
             id="g116" /><g
             id="g126"><g
               clip-path="url(#clipPath120)"
               id="g124"
               style="opacity:0.5"><path
                 d="m 543.672,665.737 c 0,-8.185 6.638,-14.825 14.819,-14.825 8.194,0 14.823,6.64 14.823,14.825 0,8.184 -6.629,14.82 -14.823,14.82 -8.181,0 -14.819,-6.636 -14.819,-14.82"
                 style="fill:#5182cb;fill-opacity:1;fill-rule:nonzero;stroke:none"
                 id="path122"
                 inkscape:connector-curvature="0" /></g></g></g><path
           d="m 477.221,754.842 c 0,-8.191 6.649,-14.828 14.82,-14.828 8.192,0 14.822,6.637 14.822,14.828 0,8.188 -6.63,14.817 -14.822,14.817 -8.171,0 -14.82,-6.629 -14.82,-14.817"
           style="fill:#5182cb;fill-opacity:1;fill-rule:nonzero;stroke:none"
           id="path128"
           inkscape:connector-curvature="0" /><path
           d="m 437.337,678.206 39.826,55.42"
           style="fill:none;stroke:#5182cb;stroke-width:1;stroke-linecap:butt;stroke-linejoin:miter;stroke-miterlimit:4;stroke-dasharray:none;stroke-opacity:1"
           id="path130"
           inkscape:connector-curvature="0" /><path
           d="m 482.067,727.329 1.532,15.336 -14.052,-6.342 z"
           style="fill:#5182cb;fill-opacity:1;fill-rule:nonzero;stroke:none"
           id="path132"
           inkscape:connector-curvature="0" /><path
           d="m 549.271,678.206 -42.11,55.596"
           style="fill:none;stroke:#5182cb;stroke-width:1;stroke-linecap:butt;stroke-linejoin:miter;stroke-miterlimit:4;stroke-dasharray:none;stroke-opacity:1"
           id="path134"
           inkscape:connector-curvature="0" /><path
           d="m 514.637,736.625 -14.211,5.988 1.921,-15.295 z"
           style="fill:#5182cb;fill-opacity:1;fill-rule:nonzero;stroke:none"
           id="path136"
           inkscape:connector-curvature="0" /><path
           d="m 531.86,665.727 -87.714,0.01"
           style="fill:none;stroke:#5182cb;stroke-width:1;stroke-linecap:butt;stroke-linejoin:miter;stroke-miterlimit:4;stroke-dasharray:none;stroke-opacity:1"
           id="path138"
           inkscape:connector-curvature="0" /><path
           d="m 529.604,673.395 13.36,-7.707 -13.36,-7.709 z"
           style="fill:#5182cb;fill-opacity:1;fill-rule:nonzero;stroke:none"
           id="path140"
           inkscape:connector-curvature="0" /><path
           d="m 415.271,522.388 c 0,-8.146 6.598,-14.753 14.741,-14.753 8.155,0 14.757,6.607 14.757,14.753 0,8.146 -6.602,14.749 -14.757,14.749 -8.143,0 -14.741,-6.603 -14.741,-14.749"
           style="fill:#cdccca;fill-opacity:1;fill-rule:nonzero;stroke:none"
           id="path142"
           inkscape:connector-curvature="0" /><path
           d="m 543.815,522.388 c 0,-8.146 6.606,-14.753 14.75,-14.753 8.153,0 14.749,6.607 14.749,14.753 0,8.146 -6.596,14.749 -14.749,14.749 -8.144,0 -14.75,-6.603 -14.75,-14.749"
           style="fill:#cdccca;fill-opacity:1;fill-rule:nonzero;stroke:none"
           id="path144"
           inkscape:connector-curvature="0" /><path
           d="m 477.686,611.063 c 0,-8.15 6.615,-14.755 14.748,-14.755 8.152,0 14.751,6.605 14.751,14.755 0,8.15 -6.599,14.747 -14.751,14.747 -8.133,0 -14.748,-6.597 -14.748,-14.747"
           style="fill:#7a7b7c;fill-opacity:1;fill-rule:nonzero;stroke:none"
           id="path146"
           inkscape:connector-curvature="0" /><path
           d="m 437.994,534.796 39.633,55.154"
           style="fill:none;stroke:#110f0d;stroke-width:1;stroke-linecap:butt;stroke-linejoin:miter;stroke-miterlimit:10;stroke-dasharray:4;stroke-dashoffset:0;stroke-opacity:1"
           id="path148"
           inkscape:connector-curvature="0" /><path
           d="m 482.508,583.683 1.525,15.262 -13.985,-6.311 z"
           style="fill:#110f0d;fill-opacity:1;fill-rule:nonzero;stroke:none"
           id="path150"
           inkscape:connector-curvature="0" /><path
           d="m 549.389,534.796 -41.91,55.329"
           style="fill:none;stroke:#110f0d;stroke-width:1;stroke-linecap:butt;stroke-linejoin:miter;stroke-miterlimit:10;stroke-dasharray:4;stroke-dashoffset:0;stroke-opacity:1"
           id="path152"
           inkscape:connector-curvature="0" /><path
           d="m 514.919,592.934 -14.141,5.96 1.911,-15.221 z"
           style="fill:#110f0d;fill-opacity:1;fill-rule:nonzero;stroke:none"
           id="path154"
           inkscape:connector-curvature="0" /><text
           transform="matrix(1,0,0,-1,421.834,655.4331)"
           style="font-variant:normal;font-weight:normal;font-stretch:normal;font-size:28.28009987px;font-family:'Myriad Pro';-inkscape-font-specification:Helvetica;writing-mode:lr-tb;fill:#ffffff;fill-opacity:1;fill-rule:nonzero;stroke:none"
           id="text158"><tspan
             x="0"
             y="0"
             id="tspan156">1</tspan></text>
<text
           transform="matrix(1,0,0,-1,550.9131,656.4111)"
           style="font-variant:normal;font-weight:normal;font-stretch:normal;font-size:28.28009987px;font-family:'Myriad Pro';-inkscape-font-specification:Helvetica;writing-mode:lr-tb;fill:#ffffff;fill-opacity:1;fill-rule:nonzero;stroke:none"
           id="text162"><tspan
             x="0"
             y="0"
             id="tspan160">2</tspan></text>
<text
           transform="matrix(1,0,0,-1,421.834,512.5396)"
           style="font-variant:normal;font-weight:normal;font-stretch:normal;font-size:28.28009987px;font-family:'Myriad Pro';-inkscape-font-specification:Helvetica;writing-mode:lr-tb;fill:#ffffff;fill-opacity:1;fill-rule:nonzero;stroke:none"
           id="text166"><tspan
             x="0"
             y="0"
             id="tspan164">1</tspan></text>
<text
           transform="matrix(1,0,0,-1,550.9131,512.5176)"
           style="font-variant:normal;font-weight:normal;font-stretch:normal;font-size:28.28009987px;font-family:'Myriad Pro';-inkscape-font-specification:Helvetica;writing-mode:lr-tb;fill:#ffffff;fill-opacity:1;fill-rule:nonzero;stroke:none"
           id="text170"><tspan
             x="0"
             y="0"
             id="tspan168">2</tspan></text>
<text
           transform="matrix(1,0,0,-1,50.5313,696.0898)"
           style="font-variant:normal;font-weight:normal;font-stretch:normal;font-size:20px;font-family:'Myriad Pro';-inkscape-font-specification:Helvetica;writing-mode:lr-tb;fill:#231f20;fill-opacity:1;fill-rule:nonzero;stroke:none"
           id="text174"><tspan
             x="0 10.26 14.4 24.66"
             y="0"
             sodipodi:role="line"
             id="tspan172">0.08</tspan></text>
<text
           transform="matrix(1,0,0,-1,51.5313,561.0898)"
           style="font-variant:normal;font-weight:normal;font-stretch:normal;font-size:20px;font-family:'Myriad Pro';-inkscape-font-specification:Helvetica;writing-mode:lr-tb;fill:#231f20;fill-opacity:1;fill-rule:nonzero;stroke:none"
           id="text178"><tspan
             x="0 10.26 14.4 24.66"
             y="0"
             sodipodi:role="line"
             id="tspan176">0.06</tspan></text>
<text
           transform="matrix(1,0,0,-1,50.5313,423.0898)"
           style="font-variant:normal;font-weight:normal;font-stretch:normal;font-size:20px;font-family:'Myriad Pro';-inkscape-font-specification:Helvetica;writing-mode:lr-tb;fill:#231f20;fill-opacity:1;fill-rule:nonzero;stroke:none"
           id="text182"><tspan
             x="0 10.26 14.4 24.66"
             y="0"
             sodipodi:role="line"
             id="tspan180">0.04</tspan></text>
<text
           transform="matrix(-0.0019,0.9999982,0.9999982,0.0019,35.1166,486.505)"
           style="font-variant:normal;font-weight:normal;font-stretch:normal;font-size:24.00004387px;font-family:Arial;-inkscape-font-specification:ArialMT;writing-mode:lr-tb;fill:#110f0d;fill-opacity:1;fill-rule:nonzero;stroke:none"
           id="text186"><tspan
             x="0 13.344024 21.336039 34.680061 48.024086 61.368111 74.712135 80.040146 85.368156 90.696167 97.368179"
             y="0"
             sodipodi:role="line"
             id="tspan184">probability</tspan></text>
</g></g></g></svg>