<?xml version="1.0" encoding="UTF-8" standalone="no"?>
<!-- Created with Inkscape (http://www.inkscape.org/) -->

<svg
   xmlns:dc="http://purl.org/dc/elements/1.1/"
   xmlns:cc="http://creativecommons.org/ns#"
   xmlns:rdf="http://www.w3.org/1999/02/22-rdf-syntax-ns#"
   xmlns:svg="http://www.w3.org/2000/svg"
   xmlns="http://www.w3.org/2000/svg"
   xmlns:sodipodi="http://sodipodi.sourceforge.net/DTD/sodipodi-0.dtd"
   xmlns:inkscape="http://www.inkscape.org/namespaces/inkscape"
   version="1.1"
   id="svg2"
   xml:space="preserve"
   width="816"
   height="650"
   viewBox="0 0 816 650"
   sodipodi:docname="define directed clustering.svg"
   inkscape:version="0.92.3 (2405546, 2018-03-11)"><metadata
     id="metadata8"><rdf:RDF><cc:Work
         rdf:about=""><dc:format>image/svg+xml</dc:format><dc:type
           rdf:resource="http://purl.org/dc/dcmitype/StillImage" /><dc:title></dc:title></cc:Work></rdf:RDF></metadata><defs
     id="defs6"><clipPath
       clipPathUnits="userSpaceOnUse"
       id="clipPath18"><path
         d="M 0,792 H 612 V 0 H 0 Z"
         id="path16"
         inkscape:connector-curvature="0" /></clipPath><clipPath
       clipPathUnits="userSpaceOnUse"
       id="clipPath112"><path
         d="m 313.223,708.347 h 17.308 v -17.308 h -17.308 z"
         id="path110"
         inkscape:connector-curvature="0" /></clipPath><clipPath
       clipPathUnits="userSpaceOnUse"
       id="clipPath116"><path
         d="m 313.223,691.039 h 17.309 v 17.308 h -17.309 z"
         id="path114"
         inkscape:connector-curvature="0" /></clipPath><clipPath
       clipPathUnits="userSpaceOnUse"
       id="clipPath208"><path
         d="m 492.948,709.363 h 17.304 v -17.311 h -17.304 z"
         id="path206"
         inkscape:connector-curvature="0" /></clipPath><clipPath
       clipPathUnits="userSpaceOnUse"
       id="clipPath212"><path
         d="m 492.948,692.052 h 17.304 v 17.311 h -17.304 z"
         id="path210"
         inkscape:connector-curvature="0" /></clipPath><clipPath
       clipPathUnits="userSpaceOnUse"
       id="clipPath290"><path
         d="m 499.305,531.86 h 17.304 v -17.307 h -17.304 z"
         id="path288"
         inkscape:connector-curvature="0" /></clipPath><clipPath
       clipPathUnits="userSpaceOnUse"
       id="clipPath294"><path
         d="m 499.305,514.553 h 17.305 v 17.308 h -17.305 z"
         id="path292"
         inkscape:connector-curvature="0" /></clipPath><clipPath
       clipPathUnits="userSpaceOnUse"
       id="clipPath376"><path
         d="m 315.417,531.86 h 17.309 v -17.307 h -17.309 z"
         id="path374"
         inkscape:connector-curvature="0" /></clipPath><clipPath
       clipPathUnits="userSpaceOnUse"
       id="clipPath380"><path
         d="m 315.417,514.553 h 17.309 v 17.308 h -17.309 z"
         id="path378"
         inkscape:connector-curvature="0" /></clipPath></defs><sodipodi:namedview
     pagecolor="#ffffff"
     bordercolor="#666666"
     borderopacity="1"
     objecttolerance="10"
     gridtolerance="10"
     guidetolerance="10"
     inkscape:pageopacity="0"
     inkscape:pageshadow="2"
     inkscape:window-width="1366"
     inkscape:window-height="745"
     id="namedview4"
     showgrid="false"
     inkscape:zoom="0.89393939"
     inkscape:cx="397.31687"
     inkscape:cy="311.50323"
     inkscape:window-x="-8"
     inkscape:window-y="-8"
     inkscape:window-maximized="1"
     inkscape:current-layer="g10" /><g
     id="g10"
     inkscape:groupmode="layer"
     inkscape:label="define directed clustering"
     transform="matrix(1.3333333,0,0,-1.3333333,0,650)"><g
       id="g12"
       transform="matrix(1.1338969,0,0,1.1382104,-58.821516,-485.25769)"><g
         id="g14"
         clip-path="url(#clipPath18)"
         transform="matrix(1.2137259,0,0,1.176751,-127.4427,-71.783193)"><path
   d="m 470.17353,468.37786 c -13.697,81.36 22.347,96.754 53.87,111.613"
   style="fill:none;stroke:#2d2627;stroke-width:1;stroke-linecap:butt;stroke-linejoin:miter;stroke-miterlimit:10;stroke-dasharray:none;stroke-opacity:1"
   id="path20"
   inkscape:connector-curvature="0" /><path
   d="m 524.58953,576.53586 3.82,5.534 -6.702,0.54 z"
   style="fill:#2d2627;fill-opacity:1;fill-rule:nonzero;stroke:none"
   id="path22"
   inkscape:connector-curvature="0" /><path
   d="m 463.71453,646.40086 c -13.668,82.234 16.313,102.146 53.565,112.452"
   style="fill:none;stroke:#2d2627;stroke-width:1;stroke-linecap:butt;stroke-linejoin:miter;stroke-miterlimit:10;stroke-dasharray:none;stroke-opacity:1"
   id="path24"
   inkscape:connector-curvature="0" /><path
   d="m 517.21653,755.31886 4.736,4.772 -6.5,1.718 z"
   style="fill:#2d2627;fill-opacity:1;fill-rule:nonzero;stroke:none"
   id="path26"
   inkscape:connector-curvature="0" /><path
   d="m 337.89946,560.67931 c -13.882,75.164 11.322,93.558 56.396,110.095"
   style="fill:none;stroke:#070606;stroke-width:1;stroke-linecap:butt;stroke-linejoin:miter;stroke-miterlimit:4;stroke-dasharray:none;stroke-opacity:1"
   id="path28"
   inkscape:connector-curvature="0" /><path
   d="m 205.59594,648.10142 c -13.797,81.513 10.868,94.332 53.755,111.863"
   style="fill:none;stroke:#2d2627;stroke-width:1;stroke-linecap:butt;stroke-linejoin:miter;stroke-miterlimit:10;stroke-dasharray:none;stroke-opacity:1"
   id="path30"
   inkscape:connector-curvature="0" /><path
   d="m 259.75494,756.44442 4.077,5.345 -6.667,0.862 z"
   style="fill:#2d2627;fill-opacity:1;fill-rule:nonzero;stroke:none"
   id="path32"
   inkscape:connector-curvature="0" /><path
   d="m 402.37446,559.70131 29.401,48.254"
   style="fill:none;stroke:#070606;stroke-width:1;stroke-linecap:butt;stroke-linejoin:miter;stroke-miterlimit:4;stroke-dasharray:none;stroke-opacity:1"
   id="path34"
   inkscape:connector-curvature="0" /><path
   d="m 402.37446,559.70131 h -56.159"
   style="fill:none;stroke:#544b4a;stroke-width:2;stroke-linecap:butt;stroke-linejoin:miter;stroke-miterlimit:4;stroke-dasharray:none;stroke-opacity:1"
   id="path36"
   inkscape:connector-curvature="0" /><path
   d="m 337.83746,559.70131 -27.639,49.09"
   style="fill:none;stroke:#070606;stroke-width:1;stroke-linecap:butt;stroke-linejoin:miter;stroke-miterlimit:4;stroke-dasharray:none;stroke-opacity:1"
   id="path38"
   inkscape:connector-curvature="0" /><path
   d="m 305.49846,615.72931 27.387,49.275"
   style="fill:none;stroke:#070606;stroke-width:1;stroke-linecap:butt;stroke-linejoin:miter;stroke-miterlimit:4;stroke-dasharray:none;stroke-opacity:1"
   id="path40"
   inkscape:connector-curvature="0" /><path
   d="m 402.37446,671.75531 h -56.159"
   style="fill:none;stroke:#070606;stroke-width:1;stroke-linecap:butt;stroke-linejoin:miter;stroke-miterlimit:4;stroke-dasharray:none;stroke-opacity:1"
   id="path42"
   inkscape:connector-curvature="0" /><path
   d="m 434.89146,615.73131 -27.574,49.273"
   style="fill:none;stroke:#070606;stroke-width:1;stroke-linecap:butt;stroke-linejoin:miter;stroke-miterlimit:4;stroke-dasharray:none;stroke-opacity:1"
   id="path44"
   inkscape:connector-curvature="0" /><path
   d="m 374.28146,608.41631 23.724,-41.575"
   style="fill:none;stroke:#544b4a;stroke-width:2;stroke-linecap:butt;stroke-linejoin:miter;stroke-miterlimit:4;stroke-dasharray:none;stroke-opacity:1"
   id="path46"
   inkscape:connector-curvature="0" /><path
   d="m 366.09946,608.41631 -23.884,-41.575"
   style="fill:none;stroke:#544b4a;stroke-width:2;stroke-linecap:butt;stroke-linejoin:miter;stroke-miterlimit:4;stroke-dasharray:none;stroke-opacity:1"
   id="path48"
   inkscape:connector-curvature="0" /><path
   d="m 361.81246,615.73131 h -47.936"
   style="fill:none;stroke:#070606;stroke-width:1;stroke-linecap:butt;stroke-linejoin:miter;stroke-miterlimit:4;stroke-dasharray:none;stroke-opacity:1"
   id="path50"
   inkscape:connector-curvature="0" /><path
   d="m 374.20346,622.98931 23.222,42.014"
   style="fill:none;stroke:#070606;stroke-width:1;stroke-linecap:butt;stroke-linejoin:miter;stroke-miterlimit:10;stroke-dasharray:none;stroke-opacity:1"
   id="path52"
   inkscape:connector-curvature="0" /><path
   d="m 378.57046,615.73131 h 47.943"
   style="fill:none;stroke:#070606;stroke-width:1;stroke-linecap:butt;stroke-linejoin:miter;stroke-miterlimit:4;stroke-dasharray:none;stroke-opacity:1"
   id="path54"
   inkscape:connector-curvature="0" /><path
   d="m 366.00446,622.98931 -23.971,41.522"
   style="fill:none;stroke:#070606;stroke-width:1;stroke-linecap:butt;stroke-linejoin:miter;stroke-miterlimit:4;stroke-dasharray:none;stroke-opacity:1"
   id="path56"
   inkscape:connector-curvature="0" /><path
   d="m 272.23694,647.09242 27.885,46.68"
   style="fill:none;stroke:#2d2627;stroke-width:1;stroke-linecap:butt;stroke-linejoin:miter;stroke-miterlimit:10;stroke-dasharray:none;stroke-opacity:1"
   id="path58"
   inkscape:connector-curvature="0" /><path
   d="m 302.50494,691.20442 0.1,6.723 -5.872,-3.274 z"
   style="fill:#2d2627;fill-opacity:1;fill-rule:nonzero;stroke:none"
   id="path60"
   inkscape:connector-curvature="0" /><path
   d="m 305.81594,705.95942 -26.037,46.712"
   style="fill:none;stroke:#2d2627;stroke-width:1;stroke-linecap:butt;stroke-linejoin:miter;stroke-miterlimit:10;stroke-dasharray:none;stroke-opacity:1"
   id="path62"
   inkscape:connector-curvature="0" /><path
   d="m 283.19394,753.44942 -5.77,3.449 -0.101,-6.722 z"
   style="fill:#2d2627;fill-opacity:1;fill-rule:nonzero;stroke:none"
   id="path64"
   inkscape:connector-curvature="0" /><path
   d="m 272.23694,765.41742 h -53.149"
   style="fill:none;stroke:#2d2627;stroke-width:1;stroke-linecap:butt;stroke-linejoin:miter;stroke-miterlimit:10;stroke-dasharray:none;stroke-opacity:1"
   id="path66"
   inkscape:connector-curvature="0" /><path
   d="m 220.07194,768.77942 -5.824,-3.363 5.824,-3.361 z"
   style="fill:#2d2627;fill-opacity:1;fill-rule:nonzero;stroke:none"
   id="path68"
   inkscape:connector-curvature="0" /><path
   d="m 172.19994,705.95742 25.862,46.708"
   style="fill:none;stroke:#2d2627;stroke-width:1;stroke-linecap:butt;stroke-linejoin:miter;stroke-miterlimit:10;stroke-dasharray:none;stroke-opacity:1"
   id="path70"
   inkscape:connector-curvature="0" /><path
   d="m 200.52594,750.17642 -0.122,6.722 -5.761,-3.465 z"
   style="fill:#2d2627;fill-opacity:1;fill-rule:nonzero;stroke:none"
   id="path72"
   inkscape:connector-curvature="0" /><path
   d="m 205.59594,648.10142 -26.169,46.477"
   style="fill:none;stroke:#2d2627;stroke-width:1;stroke-linecap:butt;stroke-linejoin:miter;stroke-miterlimit:10;stroke-dasharray:none;stroke-opacity:1"
   id="path74"
   inkscape:connector-curvature="0" /><path
   d="m 182.83794,695.36942 -5.788,3.424 -0.073,-6.723 z"
   style="fill:#2d2627;fill-opacity:1;fill-rule:nonzero;stroke:none"
   id="path76"
   inkscape:connector-curvature="0" /><path
   d="m 272.23694,647.09242 h -53.149"
   style="fill:none;stroke:#3e92ad;stroke-width:2;stroke-linecap:butt;stroke-linejoin:miter;stroke-miterlimit:10;stroke-dasharray:none;stroke-opacity:1"
   id="path78"
   inkscape:connector-curvature="0" /><path
   d="m 220.07194,650.45342 -5.824,-3.362 5.824,-3.362 z"
   style="fill:#3e92ad;fill-opacity:1;fill-rule:nonzero;stroke:none"
   id="path80"
   inkscape:connector-curvature="0" /><path
   d="m 305.81594,705.95942 -53.317,-10e-4"
   style="fill:none;stroke:#2d2627;stroke-width:1;stroke-linecap:butt;stroke-linejoin:miter;stroke-miterlimit:10;stroke-dasharray:none;stroke-opacity:1"
   id="path82"
   inkscape:connector-curvature="0" /><path
   d="m 253.48194,709.31942 -5.821,-3.363 5.821,-3.36 z"
   style="fill:#2d2627;fill-opacity:1;fill-rule:nonzero;stroke:none"
   id="path84"
   inkscape:connector-curvature="0" /><path
   d="m 272.23694,648.10142 -26.679,46.063"
   style="fill:none;stroke:#3e92ad;stroke-width:2;stroke-linecap:butt;stroke-linejoin:miter;stroke-miterlimit:10;stroke-dasharray:none;stroke-opacity:1"
   id="path86"
   inkscape:connector-curvature="0" /><path
   d="m 248.96094,694.99742 -5.827,3.353 0.007,-6.724 z"
   style="fill:#3e92ad;fill-opacity:1;fill-rule:nonzero;stroke:none"
   id="path88"
   inkscape:connector-curvature="0" /><path
   d="m 205.59594,647.09242 26.218,47.466"
   style="fill:none;stroke:#3e92ad;stroke-width:2;stroke-linecap:butt;stroke-linejoin:miter;stroke-miterlimit:10;stroke-dasharray:none;stroke-opacity:1"
   id="path90"
   inkscape:connector-curvature="0" /><path
   d="m 234.28094,692.07142 -0.128,6.722 -5.758,-3.47 z"
   style="fill:#3e92ad;fill-opacity:1;fill-rule:nonzero;stroke:none"
   id="path92"
   inkscape:connector-curvature="0" /><path
   d="m 172.19994,705.95742 h 53.315"
   style="fill:none;stroke:#2d2627;stroke-width:1;stroke-linecap:butt;stroke-linejoin:miter;stroke-miterlimit:10;stroke-dasharray:none;stroke-opacity:1"
   id="path94"
   inkscape:connector-curvature="0" /><path
   d="m 224.52994,702.59542 5.823,3.363 -5.823,3.36 z"
   style="fill:#2d2627;fill-opacity:1;fill-rule:nonzero;stroke:none"
   id="path96"
   inkscape:connector-curvature="0" /><path
   d="m 205.59594,765.41742 27.034,-47.574"
   style="fill:none;stroke:#2d2627;stroke-width:1;stroke-linecap:butt;stroke-linejoin:miter;stroke-miterlimit:10;stroke-dasharray:none;stroke-opacity:1"
   id="path98"
   inkscape:connector-curvature="0" /><path
   d="m 229.22194,717.03642 5.797,-3.401 0.049,6.724 z"
   style="fill:#2d2627;fill-opacity:1;fill-rule:nonzero;stroke:none"
   id="path100"
   inkscape:connector-curvature="0" /><path
   d="m 272.23694,765.41742 -26.866,-47.568"
   style="fill:none;stroke:#2d2627;stroke-width:1;stroke-linecap:butt;stroke-linejoin:miter;stroke-miterlimit:10;stroke-dasharray:none;stroke-opacity:1"
   id="path102"
   inkscape:connector-curvature="0" /><path
   d="m 242.92694,720.35942 0.065,-6.722 5.791,3.416 z"
   style="fill:#2d2627;fill-opacity:1;fill-rule:nonzero;stroke:none"
   id="path104"
   inkscape:connector-curvature="0" /><g
   id="g106"
   transform="translate(-82.87006,6.2654111)"><g
     id="g108" /><g
     id="g126"><g
       clip-path="url(#clipPath112)"
       id="g124"
       style="opacity:0.75"><g
         id="g122"><g
           clip-path="url(#clipPath116)"
           id="g120"><path
             d="m 330.531,699.692 c 0,4.779 -3.875,8.655 -8.657,8.655 -4.778,0 -8.651,-3.876 -8.651,-8.655 0,-4.777 3.873,-8.652 8.651,-8.652 4.782,0 8.657,3.875 8.657,8.652"
             style="fill:#4b6eb1;fill-opacity:1;fill-rule:nonzero;stroke:none"
             id="path118"
             inkscape:connector-curvature="0" /></g></g></g></g></g><path
   d="m 314.46894,705.95942 c 0,4.777 -3.875,8.652 -8.651,8.652 -4.778,0 -8.656,-3.875 -8.656,-8.652 0,-4.778 3.878,-8.656 8.656,-8.656 4.776,0 8.651,3.878 8.651,8.656"
   style="fill:#cdc9c0;fill-opacity:1;fill-rule:nonzero;stroke:none"
   id="path128"
   inkscape:connector-curvature="0" /><path
   d="m 280.89094,648.10142 c 0,4.781 -3.87,8.657 -8.653,8.657 -4.776,0 -8.657,-3.876 -8.657,-8.657 0,-4.776 3.881,-8.655 8.657,-8.655 4.783,0 8.653,3.879 8.653,8.655"
   style="fill:#cdc9c0;fill-opacity:1;fill-rule:nonzero;stroke:none"
   id="path130"
   inkscape:connector-curvature="0" /><path
   d="m 214.24794,648.10142 c 0,4.781 -3.871,8.657 -8.652,8.657 -4.78,0 -8.653,-3.876 -8.653,-8.657 0,-4.776 3.873,-8.655 8.653,-8.655 4.781,0 8.652,3.879 8.652,8.655"
   style="fill:#cdc9c0;fill-opacity:1;fill-rule:nonzero;stroke:none"
   id="path132"
   inkscape:connector-curvature="0" /><path
   d="m 180.85194,705.95942 c 0,4.777 -3.87,8.652 -8.652,8.652 -4.775,0 -8.655,-3.875 -8.655,-8.652 0,-4.778 3.88,-8.656 8.655,-8.656 4.782,0 8.652,3.878 8.652,8.656"
   style="fill:#cdc9c0;fill-opacity:1;fill-rule:nonzero;stroke:none"
   id="path134"
   inkscape:connector-curvature="0" /><path
   d="m 280.89094,763.81742 c 0,4.781 -3.87,8.652 -8.653,8.652 -4.776,0 -8.657,-3.871 -8.657,-8.652 0,-4.777 3.881,-8.655 8.657,-8.655 4.783,0 8.653,3.878 8.653,8.655"
   style="fill:#cdc9c0;fill-opacity:1;fill-rule:nonzero;stroke:none"
   id="path136"
   inkscape:connector-curvature="0" /><path
   d="m 214.24794,763.81542 c 0,4.778 -3.871,8.652 -8.652,8.652 -4.78,0 -8.653,-3.874 -8.653,-8.652 0,-4.78 3.873,-8.656 8.653,-8.656 4.781,0 8.652,3.876 8.652,8.656"
   style="fill:#cdc9c0;fill-opacity:1;fill-rule:nonzero;stroke:none"
   id="path138"
   inkscape:connector-curvature="0" /><path
   d="m 378.57046,615.73131 c 0,4.628 -3.752,8.379 -8.378,8.379 -4.63,0 -8.381,-3.751 -8.381,-8.379 0,-4.628 3.751,-8.379 8.381,-8.379 4.626,0 8.378,3.751 8.378,8.379"
   style="fill:#726965;fill-opacity:1;fill-rule:nonzero;stroke:none"
   id="path140"
   inkscape:connector-curvature="0" /><path
   d="m 443.27146,615.73131 c 0,4.628 -3.75,8.379 -8.379,8.379 -4.63,0 -8.381,-3.751 -8.381,-8.379 0,-4.628 3.751,-8.384 8.381,-8.384 4.629,0 8.379,3.756 8.379,8.384"
   style="fill:#cdc9c0;fill-opacity:1;fill-rule:nonzero;stroke:none"
   id="path142"
   inkscape:connector-curvature="0" /><path
   d="m 410.75046,559.70131 c 0,4.628 -3.749,8.378 -8.378,8.378 -4.626,0 -8.38,-3.75 -8.38,-8.378 0,-4.628 3.754,-8.382 8.38,-8.382 4.629,0 8.378,3.754 8.378,8.382"
   style="fill:#cdc9c0;fill-opacity:1;fill-rule:nonzero;stroke:none"
   id="path144"
   inkscape:connector-curvature="0" /><path
   d="m 346.21546,559.70131 c 0,4.628 -3.749,8.378 -8.377,8.378 -4.629,0 -8.382,-3.75 -8.382,-8.378 0,-4.628 3.753,-8.382 8.382,-8.382 4.628,0 8.377,3.754 8.377,8.382"
   style="fill:#cdc9c0;fill-opacity:1;fill-rule:nonzero;stroke:none"
   id="path146"
   inkscape:connector-curvature="0" /><path
   d="m 313.87646,615.73131 c 0,4.628 -3.749,8.379 -8.379,8.379 -4.626,0 -8.381,-3.751 -8.381,-8.379 0,-4.628 3.755,-8.384 8.381,-8.384 4.63,0 8.379,3.756 8.379,8.384"
   style="fill:#cdc9c0;fill-opacity:1;fill-rule:nonzero;stroke:none"
   id="path148"
   inkscape:connector-curvature="0" /><path
   d="m 410.75046,671.76131 c 0,4.627 -3.749,8.378 -8.378,8.378 -4.626,0 -8.38,-3.751 -8.38,-8.378 0,-4.628 3.754,-8.382 8.38,-8.382 4.629,0 8.378,3.754 8.378,8.382"
   style="fill:#cdc9c0;fill-opacity:1;fill-rule:nonzero;stroke:none"
   id="path150"
   inkscape:connector-curvature="0" /><path
   d="m 346.21546,671.75531 c 0,4.629 -3.749,8.378 -8.377,8.378 -4.629,0 -8.382,-3.749 -8.382,-8.378 0,-4.627 3.753,-8.378 8.382,-8.378 4.628,0 8.377,3.751 8.377,8.378"
   style="fill:#cdc9c0;fill-opacity:1;fill-rule:nonzero;stroke:none"
   id="path152"
   inkscape:connector-curvature="0" /><path
   d="m 530.39353,648.74886 27.84,45.692"
   style="fill:none;stroke:#2d2627;stroke-width:1;stroke-linecap:butt;stroke-linejoin:miter;stroke-miterlimit:10;stroke-dasharray:none;stroke-opacity:1"
   id="path154"
   inkscape:connector-curvature="0" /><path
   d="m 560.59453,691.85086 0.157,6.721 -5.9,-3.221 z"
   style="fill:#2d2627;fill-opacity:1;fill-rule:nonzero;stroke:none"
   id="path156"
   inkscape:connector-curvature="0" /><path
   d="m 530.39353,648.74886 -53.154,-0.001"
   style="fill:none;stroke:#2c8e29;stroke-width:2;stroke-linecap:butt;stroke-linejoin:miter;stroke-miterlimit:10;stroke-dasharray:none;stroke-opacity:1"
   id="path158"
   inkscape:connector-curvature="0" /><path
   d="m 478.22353,652.10886 -5.822,-3.363 5.822,-3.362 z"
   style="fill:#2c8e29;fill-opacity:1;fill-rule:nonzero;stroke:none"
   id="path160"
   inkscape:connector-curvature="0" /><path
   d="m 463.74853,648.74886 -26.164,46.474"
   style="fill:none;stroke:#2d2627;stroke-width:1;stroke-linecap:butt;stroke-linejoin:miter;stroke-miterlimit:10;stroke-dasharray:none;stroke-opacity:1"
   id="path162"
   inkscape:connector-curvature="0" /><path
   d="m 440.99553,696.01586 -5.788,3.423 -0.072,-6.722 z"
   style="fill:#2d2627;fill-opacity:1;fill-rule:nonzero;stroke:none"
   id="path164"
   inkscape:connector-curvature="0" /><path
   d="m 430.35853,706.60086 25.93,46.658"
   style="fill:none;stroke:#2d2627;stroke-width:1;stroke-linecap:butt;stroke-linejoin:miter;stroke-miterlimit:10;stroke-dasharray:none;stroke-opacity:1"
   id="path166"
   inkscape:connector-curvature="0" /><path
   d="m 458.74853,750.76386 -0.11,6.722 -5.768,-3.455 z"
   style="fill:#2d2627;fill-opacity:1;fill-rule:nonzero;stroke:none"
   id="path168"
   inkscape:connector-curvature="0" /><path
   d="m 530.39353,764.45886 h -53.154"
   style="fill:none;stroke:#2d2627;stroke-width:1;stroke-linecap:butt;stroke-linejoin:miter;stroke-miterlimit:10;stroke-dasharray:none;stroke-opacity:1"
   id="path170"
   inkscape:connector-curvature="0" /><path
   d="m 478.22353,767.82086 -5.822,-3.362 5.822,-3.362 z"
   style="fill:#2d2627;fill-opacity:1;fill-rule:nonzero;stroke:none"
   id="path172"
   inkscape:connector-curvature="0" /><path
   d="m 563.97053,706.60686 -26.112,46.658"
   style="fill:none;stroke:#2d2627;stroke-width:1;stroke-linecap:butt;stroke-linejoin:miter;stroke-miterlimit:10;stroke-dasharray:none;stroke-opacity:1"
   id="path174"
   inkscape:connector-curvature="0" /><path
   d="m 541.27453,754.04786 -5.778,3.439 -0.09,-6.723 z"
   style="fill:#2d2627;fill-opacity:1;fill-rule:nonzero;stroke:none"
   id="path176"
   inkscape:connector-curvature="0" /><path
   d="m 501.38053,699.04986 22.101,-38.726"
   style="fill:none;stroke:#2c8e29;stroke-width:2;stroke-linecap:butt;stroke-linejoin:miter;stroke-miterlimit:10;stroke-dasharray:none;stroke-opacity:1"
   id="path178"
   inkscape:connector-curvature="0" /><path
   d="m 520.07453,659.51186 5.805,-3.389 0.035,6.723 z"
   style="fill:#2c8e29;fill-opacity:1;fill-rule:nonzero;stroke:none"
   id="path180"
   inkscape:connector-curvature="0" /><path
   d="m 492.93453,699.04986 -22.253,-38.733"
   style="fill:none;stroke:#2c8e29;stroke-width:2;stroke-linecap:butt;stroke-linejoin:miter;stroke-miterlimit:10;stroke-dasharray:none;stroke-opacity:1"
   id="path182"
   inkscape:connector-curvature="0" /><path
   d="m 468.25453,662.84486 0.017,-6.724 5.813,3.376 z"
   style="fill:#2c8e29;fill-opacity:1;fill-rule:nonzero;stroke:none"
   id="path184"
   inkscape:connector-curvature="0" /><path
   d="m 488.50853,706.60686 -44.662,-0.002"
   style="fill:none;stroke:#070606;stroke-width:1;stroke-linecap:butt;stroke-linejoin:miter;stroke-miterlimit:10;stroke-dasharray:none;stroke-opacity:1"
   id="path186"
   inkscape:connector-curvature="0" /><path
   d="m 444.83153,709.96686 -5.825,-3.363 5.825,-3.361 z"
   style="fill:#070606;fill-opacity:1;fill-rule:nonzero;stroke:none"
   id="path188"
   inkscape:connector-curvature="0" /><path
   d="m 501.30353,714.09886 21.641,39.153"
   style="fill:none;stroke:#070606;stroke-width:1;stroke-linecap:butt;stroke-linejoin:miter;stroke-miterlimit:10;stroke-dasharray:none;stroke-opacity:1"
   id="path190"
   inkscape:connector-curvature="0" /><path
   d="m 525.41053,750.76486 -0.125,6.722 -5.76,-3.468 z"
   style="fill:#070606;fill-opacity:1;fill-rule:nonzero;stroke:none"
   id="path192"
   inkscape:connector-curvature="0" /><path
   d="m 505.81253,706.60686 44.665,-0.002"
   style="fill:none;stroke:#070606;stroke-width:1;stroke-linecap:butt;stroke-linejoin:miter;stroke-miterlimit:10;stroke-dasharray:none;stroke-opacity:1"
   id="path194"
   inkscape:connector-curvature="0" /><path
   d="m 549.49353,703.24286 5.822,3.362 -5.822,3.362 z"
   style="fill:#070606;fill-opacity:1;fill-rule:nonzero;stroke:none"
   id="path196"
   inkscape:connector-curvature="0" /><path
   d="m 492.83353,714.09886 -22.33,38.687"
   style="fill:none;stroke:#070606;stroke-width:1;stroke-linecap:butt;stroke-linejoin:miter;stroke-miterlimit:10;stroke-dasharray:none;stroke-opacity:1"
   id="path198"
   inkscape:connector-curvature="0" /><path
   d="m 473.90653,753.61386 -5.823,3.361 -0.002,-6.724 z"
   style="fill:#070606;fill-opacity:1;fill-rule:nonzero;stroke:none"
   id="path200"
   inkscape:connector-curvature="0" /><g
   id="g202"
   transform="translate(-4.4394675,5.8968575)"><g
     id="g204" /><g
     id="g222"><g
       clip-path="url(#clipPath208)"
       id="g220"
       style="opacity:0.75"><g
         id="g218"><g
           clip-path="url(#clipPath212)"
           id="g216"><path
             d="m 510.252,700.708 c 0,4.781 -3.875,8.655 -8.652,8.655 -4.782,0 -8.652,-3.874 -8.652,-8.655 0,-4.777 3.87,-8.656 8.652,-8.656 4.777,0 8.652,3.879 8.652,8.656"
             style="fill:#2c8e29;fill-opacity:1;fill-rule:nonzero;stroke:none"
             id="path214"
             inkscape:connector-curvature="0" /></g></g></g></g></g><path
   d="m 572.62153,706.60486 c 0,4.776 -3.871,8.651 -8.653,8.651 -4.775,0 -8.653,-3.875 -8.653,-8.651 0,-4.781 3.878,-8.656 8.653,-8.656 4.782,0 8.653,3.875 8.653,8.656"
   style="fill:#cdc9c0;fill-opacity:1;fill-rule:nonzero;stroke:none"
   id="path224"
   inkscape:connector-curvature="0" /><path
   d="m 539.04353,648.74686 c 0,4.778 -3.87,8.656 -8.654,8.656 -4.776,0 -8.651,-3.878 -8.651,-8.656 0,-4.777 3.875,-8.656 8.651,-8.656 4.784,0 8.654,3.879 8.654,8.656"
   style="fill:#cdc9c0;fill-opacity:1;fill-rule:nonzero;stroke:none"
   id="path226"
   inkscape:connector-curvature="0" /><path
   d="m 472.40153,648.74686 c 0,4.778 -3.872,8.656 -8.653,8.656 -4.781,0 -8.653,-3.878 -8.653,-8.656 0,-4.777 3.872,-8.656 8.653,-8.656 4.781,0 8.653,3.879 8.653,8.656"
   style="fill:#cdc9c0;fill-opacity:1;fill-rule:nonzero;stroke:none"
   id="path228"
   inkscape:connector-curvature="0" /><path
   d="m 439.00653,706.60486 c 0,4.776 -3.868,8.651 -8.651,8.651 -4.777,0 -8.655,-3.875 -8.655,-8.651 0,-4.781 3.878,-8.656 8.655,-8.656 4.783,0 8.651,3.875 8.651,8.656"
   style="fill:#cdc9c0;fill-opacity:1;fill-rule:nonzero;stroke:none"
   id="path230"
   inkscape:connector-curvature="0" /><path
   d="m 539.04353,764.46186 c 0,4.779 -3.87,8.652 -8.654,8.652 -4.776,0 -8.651,-3.873 -8.651,-8.652 0,-4.776 3.875,-8.656 8.651,-8.656 4.784,0 8.654,3.88 8.654,8.656"
   style="fill:#cdc9c0;fill-opacity:1;fill-rule:nonzero;stroke:none"
   id="path232"
   inkscape:connector-curvature="0" /><path
   d="m 472.40153,764.45886 c 0,4.78 -3.872,8.652 -8.653,8.652 -4.781,0 -8.653,-3.872 -8.653,-8.652 0,-4.779 3.872,-8.656 8.653,-8.656 4.781,0 8.653,3.877 8.653,8.656"
   style="fill:#cdc9c0;fill-opacity:1;fill-rule:nonzero;stroke:none"
   id="path234"
   inkscape:connector-curvature="0" /><path
   d="m 543.76053,482.74886 23.348,38.324"
   style="fill:none;stroke:#2d2627;stroke-width:1;stroke-linecap:butt;stroke-linejoin:miter;stroke-miterlimit:10;stroke-dasharray:none;stroke-opacity:1"
   id="path236"
   inkscape:connector-curvature="0" /><path
   d="m 547.14353,481.83886 -5.899,-3.222 0.157,6.72 z"
   style="fill:#2d2627;fill-opacity:1;fill-rule:nonzero;stroke:none"
   id="path238"
   inkscape:connector-curvature="0" /><path
   d="m 523.25653,471.24686 -44.501,-0.003"
   style="fill:none;stroke:#c10000;stroke-width:2;stroke-linecap:butt;stroke-linejoin:miter;stroke-miterlimit:10;stroke-dasharray:none;stroke-opacity:1"
   id="path240"
   inkscape:connector-curvature="0" /><path
   d="m 522.27253,474.60786 5.822,-3.361 -5.822,-3.363 z"
   style="fill:#c10000;fill-opacity:1;fill-rule:nonzero;stroke:none"
   id="path242"
   inkscape:connector-curvature="0" /><path
   d="m 470.10953,471.24686 -26.165,46.473"
   style="fill:none;stroke:#2d2627;stroke-width:1;stroke-linecap:butt;stroke-linejoin:miter;stroke-miterlimit:10;stroke-dasharray:none;stroke-opacity:1"
   id="path244"
   inkscape:connector-curvature="0" /><path
   d="m 447.35553,518.51386 -5.786,3.424 -0.072,-6.723 z"
   style="fill:#2d2627;fill-opacity:1;fill-rule:nonzero;stroke:none"
   id="path246"
   inkscape:connector-curvature="0" /><path
   d="m 443.36353,540.83286 21.632,39.153"
   style="fill:none;stroke:#2d2627;stroke-width:1;stroke-linecap:butt;stroke-linejoin:miter;stroke-miterlimit:10;stroke-dasharray:none;stroke-opacity:1"
   id="path248"
   inkscape:connector-curvature="0" /><path
   d="m 446.78253,540.06786 -5.758,-3.471 -0.127,6.723 z"
   style="fill:#2d2627;fill-opacity:1;fill-rule:nonzero;stroke:none"
   id="path250"
   inkscape:connector-curvature="0" /><path
   d="m 523.25653,586.95686 h -44.501"
   style="fill:none;stroke:#2d2627;stroke-width:1;stroke-linecap:butt;stroke-linejoin:miter;stroke-miterlimit:10;stroke-dasharray:none;stroke-opacity:1"
   id="path252"
   inkscape:connector-curvature="0" /><path
   d="m 522.27253,590.31886 5.822,-3.363 -5.822,-3.36 z"
   style="fill:#2d2627;fill-opacity:1;fill-rule:nonzero;stroke:none"
   id="path254"
   inkscape:connector-curvature="0" /><path
   d="m 570.32853,529.10486 -26.111,46.658"
   style="fill:none;stroke:#2d2627;stroke-width:1;stroke-linecap:butt;stroke-linejoin:miter;stroke-miterlimit:10;stroke-dasharray:none;stroke-opacity:1"
   id="path256"
   inkscape:connector-curvature="0" /><path
   d="m 547.63353,576.54586 -5.777,3.439 -0.091,-6.722 z"
   style="fill:#2d2627;fill-opacity:1;fill-rule:nonzero;stroke:none"
   id="path258"
   inkscape:connector-curvature="0" /><path
   d="m 510.13853,517.34786 22.096,-38.731"
   style="fill:none;stroke:#c10000;stroke-width:2;stroke-linecap:butt;stroke-linejoin:miter;stroke-miterlimit:10;stroke-dasharray:none;stroke-opacity:1"
   id="path260"
   inkscape:connector-curvature="0" /><path
   d="m 507.70653,514.82686 0.034,6.725 5.806,-3.392 z"
   style="fill:#c10000;fill-opacity:1;fill-rule:nonzero;stroke:none"
   id="path262"
   inkscape:connector-curvature="0" /><path
   d="m 499.29453,521.55086 -22.256,-38.739"
   style="fill:none;stroke:#c10000;stroke-width:2;stroke-linecap:butt;stroke-linejoin:miter;stroke-miterlimit:10;stroke-dasharray:none;stroke-opacity:1"
   id="path264"
   inkscape:connector-curvature="0" /><path
   d="m 474.61353,485.33986 0.014,-6.724 5.816,3.375 z"
   style="fill:#c10000;fill-opacity:1;fill-rule:nonzero;stroke:none"
   id="path266"
   inkscape:connector-curvature="0" /><path
   d="m 490.02753,529.10486 -44.662,-0.003"
   style="fill:none;stroke:#070606;stroke-width:1;stroke-linecap:butt;stroke-linejoin:miter;stroke-miterlimit:10;stroke-dasharray:none;stroke-opacity:1"
   id="path268"
   inkscape:connector-curvature="0" /><path
   d="m 489.04253,532.46586 5.823,-3.361 -5.823,-3.363 z"
   style="fill:#070606;fill-opacity:1;fill-rule:nonzero;stroke:none"
   id="path270"
   inkscape:connector-curvature="0" /><path
   d="m 509.99753,540.83186 21.641,39.153"
   style="fill:none;stroke:#070606;stroke-width:1;stroke-linecap:butt;stroke-linejoin:miter;stroke-miterlimit:10;stroke-dasharray:none;stroke-opacity:1"
   id="path272"
   inkscape:connector-curvature="0" /><path
   d="m 513.41553,540.06586 -5.759,-3.469 -0.126,6.723 z"
   style="fill:#070606;fill-opacity:1;fill-rule:nonzero;stroke:none"
   id="path274"
   inkscape:connector-curvature="0" /><path
   d="m 512.16953,529.10486 44.667,-0.003"
   style="fill:none;stroke:#070606;stroke-width:1;stroke-linecap:butt;stroke-linejoin:miter;stroke-miterlimit:10;stroke-dasharray:none;stroke-opacity:1"
   id="path276"
   inkscape:connector-curvature="0" /><path
   d="m 555.85253,525.73986 5.822,3.362 -5.822,3.362 z"
   style="fill:#070606;fill-opacity:1;fill-rule:nonzero;stroke:none"
   id="path278"
   inkscape:connector-curvature="0" /><path
   d="m 499.19053,536.59686 -22.329,38.688"
   style="fill:none;stroke:#070606;stroke-width:1;stroke-linecap:butt;stroke-linejoin:miter;stroke-miterlimit:10;stroke-dasharray:none;stroke-opacity:1"
   id="path280"
   inkscape:connector-curvature="0" /><path
   d="m 480.26553,576.11286 -5.822,3.363 -0.002,-6.724 z"
   style="fill:#070606;fill-opacity:1;fill-rule:nonzero;stroke:none"
   id="path282"
   inkscape:connector-curvature="0" /><g
   id="g284"
   transform="translate(-4.4394675,5.8968575)"><g
     id="g286" /><g
     id="g304"><g
       clip-path="url(#clipPath290)"
       id="g302"
       style="opacity:0.75"><g
         id="g300"><g
           clip-path="url(#clipPath294)"
           id="g298"><path
             d="m 516.609,523.205 c 0,4.78 -3.876,8.655 -8.653,8.655 -4.778,0 -8.651,-3.875 -8.651,-8.655 0,-4.777 3.873,-8.652 8.651,-8.652 4.777,0 8.653,3.875 8.653,8.652"
             style="fill:#840000;fill-opacity:1;fill-rule:nonzero;stroke:none"
             id="path296"
             inkscape:connector-curvature="0" /></g></g></g></g></g><path
   d="m 578.98053,529.10186 c 0,4.78 -3.872,8.651 -8.652,8.651 -4.777,0 -8.654,-3.871 -8.654,-8.651 0,-4.779 3.877,-8.652 8.654,-8.652 4.78,0 8.652,3.873 8.652,8.652"
   style="fill:#cdc9c0;fill-opacity:1;fill-rule:nonzero;stroke:none"
   id="path306"
   inkscape:connector-curvature="0" /><path
   d="m 545.40053,471.24386 c 0,4.78 -3.87,8.651 -8.652,8.651 -4.776,0 -8.656,-3.871 -8.656,-8.651 0,-4.779 3.88,-8.653 8.656,-8.653 4.782,0 8.652,3.874 8.652,8.653"
   style="fill:#cdc9c0;fill-opacity:1;fill-rule:nonzero;stroke:none"
   id="path308"
   inkscape:connector-curvature="0" /><path
   d="m 478.75553,471.24386 c 0,4.78 -3.87,8.651 -8.646,8.651 -4.78,0 -8.66,-3.871 -8.66,-8.651 0,-4.779 3.88,-8.653 8.66,-8.653 4.776,0 8.646,3.874 8.646,8.653"
   style="fill:#cdc9c0;fill-opacity:1;fill-rule:nonzero;stroke:none"
   id="path310"
   inkscape:connector-curvature="0" /><path
   d="m 445.36553,529.10186 c 0,4.78 -3.87,8.651 -8.654,8.651 -4.774,0 -8.652,-3.871 -8.652,-8.651 0,-4.779 3.878,-8.652 8.652,-8.652 4.784,0 8.654,3.873 8.654,8.652"
   style="fill:#cdc9c0;fill-opacity:1;fill-rule:nonzero;stroke:none"
   id="path312"
   inkscape:connector-curvature="0" /><path
   d="m 545.40053,586.95986 c 0,4.78 -3.87,8.651 -8.652,8.651 -4.776,0 -8.656,-3.871 -8.656,-8.651 0,-4.779 3.88,-8.652 8.656,-8.652 4.782,0 8.652,3.873 8.652,8.652"
   style="fill:#cdc9c0;fill-opacity:1;fill-rule:nonzero;stroke:none"
   id="path314"
   inkscape:connector-curvature="0" /><path
   d="m 478.75553,586.95686 c 0,4.778 -3.87,8.652 -8.646,8.652 -4.78,0 -8.66,-3.874 -8.66,-8.652 0,-4.78 3.88,-8.655 8.66,-8.655 4.776,0 8.646,3.875 8.646,8.655"
   style="fill:#cdc9c0;fill-opacity:1;fill-rule:nonzero;stroke:none"
   id="path316"
   inkscape:connector-curvature="0" /><path
   d="m 207.00794,485.04042 c -10.912,69.483 6.482,83.486 59.083,97.396"
   style="fill:none;stroke:#2d2627;stroke-width:1;stroke-linecap:butt;stroke-linejoin:miter;stroke-miterlimit:10;stroke-dasharray:none;stroke-opacity:1"
   id="path318"
   inkscape:connector-curvature="0" /><path
   d="m 210.23894,486.52542 -2.451,-6.261 -4.196,5.252 z"
   style="fill:#2d2627;fill-opacity:1;fill-rule:nonzero;stroke:none"
   id="path320"
   inkscape:connector-curvature="0" /><path
   d="m 278.92594,478.98542 23.349,38.323"
   style="fill:none;stroke:#2d2627;stroke-width:1;stroke-linecap:butt;stroke-linejoin:miter;stroke-miterlimit:10;stroke-dasharray:none;stroke-opacity:1"
   id="path322"
   inkscape:connector-curvature="0" /><path
   d="m 304.63294,514.72042 0.158,6.72 -5.899,-3.222 z"
   style="fill:#2d2627;fill-opacity:1;fill-rule:nonzero;stroke:none"
   id="path324"
   inkscape:connector-curvature="0" /><path
   d="m 265.77494,471.61542 -44.496,-0.003"
   style="fill:none;stroke:#ff6200;stroke-width:2;stroke-linecap:butt;stroke-linejoin:round;stroke-miterlimit:4;stroke-dasharray:none;stroke-opacity:1"
   id="path326"
   inkscape:connector-curvature="0" /><path
   d="m 222.26394,474.97442 -5.822,-3.363 5.822,-3.362 z"
   style="fill:#ff6200;fill-opacity:1;fill-rule:nonzero;stroke:none"
   id="path328"
   inkscape:connector-curvature="0" /><path
   d="m 201.26594,483.20142 -22.018,39.105"
   style="fill:none;stroke:#2d2627;stroke-width:1;stroke-linecap:butt;stroke-linejoin:miter;stroke-miterlimit:10;stroke-dasharray:none;stroke-opacity:1"
   id="path330"
   inkscape:connector-curvature="0" /><path
   d="m 203.71294,485.70742 -0.073,-6.721 -5.786,3.423 z"
   style="fill:#2d2627;fill-opacity:1;fill-rule:nonzero;stroke:none"
   id="path332"
   inkscape:connector-curvature="0" /><path
   d="m 178.70694,536.96542 21.629,39.153"
   style="fill:none;stroke:#2d2627;stroke-width:1;stroke-linecap:butt;stroke-linejoin:miter;stroke-miterlimit:10;stroke-dasharray:none;stroke-opacity:1"
   id="path334"
   inkscape:connector-curvature="0" /><path
   d="m 202.80194,573.63142 -0.127,6.722 -5.758,-3.471 z"
   style="fill:#2d2627;fill-opacity:1;fill-rule:nonzero;stroke:none"
   id="path336"
   inkscape:connector-curvature="0" /><path
   d="m 265.77494,587.32542 h -44.496"
   style="fill:none;stroke:#2d2627;stroke-width:1;stroke-linecap:butt;stroke-linejoin:miter;stroke-miterlimit:10;stroke-dasharray:none;stroke-opacity:1"
   id="path338"
   inkscape:connector-curvature="0" /><path
   d="m 222.26394,590.68742 -5.822,-3.363 5.822,-3.36 z"
   style="fill:#2d2627;fill-opacity:1;fill-rule:nonzero;stroke:none"
   id="path340"
   inkscape:connector-curvature="0" /><path
   d="m 308.01394,529.47342 -26.115,46.658"
   style="fill:none;stroke:#2d2627;stroke-width:1;stroke-linecap:butt;stroke-linejoin:miter;stroke-miterlimit:10;stroke-dasharray:none;stroke-opacity:1"
   id="path342"
   inkscape:connector-curvature="0" /><path
   d="m 285.31294,576.91442 -5.779,3.439 -0.09,-6.722 z"
   style="fill:#2d2627;fill-opacity:1;fill-rule:nonzero;stroke:none"
   id="path344"
   inkscape:connector-curvature="0" /><path
   d="m 247.81794,517.71642 22.102,-38.731"
   style="fill:none;stroke:#ff6200;stroke-width:2;stroke-linecap:butt;stroke-linejoin:round;stroke-miterlimit:4;stroke-dasharray:none;stroke-opacity:1"
   id="path346"
   inkscape:connector-curvature="0" /><path
   d="m 245.38494,515.19542 0.034,6.725 5.807,-3.39 z"
   style="fill:#ff6200;fill-opacity:1;fill-rule:nonzero;stroke:none"
   id="path348"
   inkscape:connector-curvature="0" /><path
   d="m 236.97394,521.91942 -22.258,-38.739"
   style="fill:none;stroke:#ff6200;stroke-width:2;stroke-linecap:butt;stroke-linejoin:round;stroke-miterlimit:4;stroke-dasharray:none;stroke-opacity:1"
   id="path350"
   inkscape:connector-curvature="0" /><path
   d="m 212.29194,485.70842 0.015,-6.724 5.815,3.375 z"
   style="fill:#ff6200;fill-opacity:1;fill-rule:nonzero;stroke:none"
   id="path352"
   inkscape:connector-curvature="0" /><path
   d="m 227.70894,529.47342 -44.665,-0.003"
   style="fill:none;stroke:#070606;stroke-width:1;stroke-linecap:butt;stroke-linejoin:miter;stroke-miterlimit:10;stroke-dasharray:none;stroke-opacity:1"
   id="path354"
   inkscape:connector-curvature="0" /><path
   d="m 226.72494,532.83442 5.822,-3.361 -5.822,-3.363 z"
   style="fill:#070606;fill-opacity:1;fill-rule:nonzero;stroke:none"
   id="path356"
   inkscape:connector-curvature="0" /><path
   d="m 247.68294,541.20042 21.641,39.153"
   style="fill:none;stroke:#070606;stroke-width:1;stroke-linecap:butt;stroke-linejoin:miter;stroke-miterlimit:10;stroke-dasharray:none;stroke-opacity:1"
   id="path358"
   inkscape:connector-curvature="0" /><path
   d="m 251.10194,540.43442 -5.759,-3.469 -0.126,6.723 z"
   style="fill:#070606;fill-opacity:1;fill-rule:nonzero;stroke:none"
   id="path360"
   inkscape:connector-curvature="0" /><path
   d="m 249.85594,529.47342 44.662,-0.003"
   style="fill:none;stroke:#070606;stroke-width:1;stroke-linecap:butt;stroke-linejoin:miter;stroke-miterlimit:10;stroke-dasharray:none;stroke-opacity:1"
   id="path362"
   inkscape:connector-curvature="0" /><path
   d="m 293.53294,526.10842 5.823,3.362 -5.823,3.362 z"
   style="fill:#070606;fill-opacity:1;fill-rule:nonzero;stroke:none"
   id="path364"
   inkscape:connector-curvature="0" /><path
   d="m 236.87294,536.96542 -22.331,38.688"
   style="fill:none;stroke:#070606;stroke-width:1;stroke-linecap:butt;stroke-linejoin:miter;stroke-miterlimit:10;stroke-dasharray:none;stroke-opacity:1"
   id="path366"
   inkscape:connector-curvature="0" /><path
   d="m 217.94594,576.48142 -5.822,3.363 -0.002,-6.724 z"
   style="fill:#070606;fill-opacity:1;fill-rule:nonzero;stroke:none"
   id="path368"
   inkscape:connector-curvature="0" /><g
   id="g370"
   transform="translate(-82.87006,6.2654111)"><g
     id="g372" /><g
     id="g390"><g
       clip-path="url(#clipPath376)"
       id="g388"
       style="opacity:0.75"><g
         id="g386"><g
           clip-path="url(#clipPath380)"
           id="g384"><path
             d="m 332.726,523.205 c 0,4.78 -3.88,8.655 -8.659,8.655 -4.78,0 -8.65,-3.875 -8.65,-8.655 0,-4.777 3.87,-8.652 8.65,-8.652 4.779,0 8.659,3.875 8.659,8.652"
             style="fill:#ff6200;fill-opacity:1;fill-rule:nonzero;stroke:none"
             id="path382"
             inkscape:connector-curvature="0" /></g></g></g></g></g><path
   d="m 316.66194,529.47042 c 0,4.78 -3.871,8.651 -8.654,8.651 -4.774,0 -8.654,-3.871 -8.654,-8.651 0,-4.779 3.88,-8.652 8.654,-8.652 4.783,0 8.654,3.873 8.654,8.652"
   style="fill:#cdc9c0;fill-opacity:1;fill-rule:nonzero;stroke:none"
   id="path392"
   inkscape:connector-curvature="0" /><path
   d="m 283.08494,471.61242 c 0,4.78 -3.873,8.651 -8.652,8.651 -4.78,0 -8.659,-3.871 -8.659,-8.651 0,-4.779 3.879,-8.653 8.659,-8.653 4.779,0 8.652,3.874 8.652,8.653"
   style="fill:#cdc9c0;fill-opacity:1;fill-rule:nonzero;stroke:none"
   id="path394"
   inkscape:connector-curvature="0" /><path
   d="m 216.44194,471.61242 c 0,4.78 -3.874,8.651 -8.654,8.651 -4.777,0 -8.652,-3.871 -8.652,-8.651 0,-4.779 3.875,-8.653 8.652,-8.653 4.78,0 8.654,3.874 8.654,8.653"
   style="fill:#cdc9c0;fill-opacity:1;fill-rule:nonzero;stroke:none"
   id="path396"
   inkscape:connector-curvature="0" /><path
   d="m 183.04394,529.47042 c 0,4.78 -3.87,8.651 -8.65,8.651 -4.777,0 -8.656,-3.871 -8.656,-8.651 0,-4.779 3.879,-8.652 8.656,-8.652 4.78,0 8.65,3.873 8.65,8.652"
   style="fill:#cdc9c0;fill-opacity:1;fill-rule:nonzero;stroke:none"
   id="path398"
   inkscape:connector-curvature="0" /><path
   d="m 283.08494,587.32842 c 0,4.78 -3.873,8.651 -8.652,8.651 -4.78,0 -8.659,-3.871 -8.659,-8.651 0,-4.779 3.879,-8.652 8.659,-8.652 4.779,0 8.652,3.873 8.652,8.652"
   style="fill:#cdc9c0;fill-opacity:1;fill-rule:nonzero;stroke:none"
   id="path400"
   inkscape:connector-curvature="0" /><path
   d="m 216.44194,587.32542 c 0,4.778 -3.874,8.652 -8.654,8.652 -4.777,0 -8.652,-3.874 -8.652,-8.652 0,-4.78 3.875,-8.655 8.652,-8.655 4.78,0 8.654,3.875 8.654,8.655"
   style="fill:#cdc9c0;fill-opacity:1;fill-rule:nonzero;stroke:none"
   id="path402"
   inkscape:connector-curvature="0" /><text
   transform="scale(1,-1)"
   style="font-variant:normal;font-weight:normal;font-stretch:normal;font-size:14px;font-family:Arial;-inkscape-font-specification:ArialMT;writing-mode:lr-tb;fill:#710000;fill-opacity:1;fill-rule:nonzero;stroke:none"
   id="text406"
   x="486.73532"
   y="-442.43497"><tspan
     x="486.73532 493.73532 500.73532 507.73532 510.84332"
     y="-442.43497"
     sodipodi:role="line"
     id="tspan404">cycle</tspan></text>

<text
   transform="scale(1,-1)"
   style="font-variant:normal;font-weight:normal;font-stretch:normal;font-size:14px;font-family:Arial;-inkscape-font-specification:ArialMT;writing-mode:lr-tb;fill:#ff4f00;fill-opacity:1;fill-rule:nonzero;stroke:none"
   id="text410"
   x="206.39455"
   y="-439.77811"><tspan
     x="206.39455 218.05653 221.16454 228.94853 236.73256 239.84053 247.62456 252.28654 263.94852 271.73251"
     y="-439.77811"
     sodipodi:role="line"
     id="tspan408">middle-man</tspan></text>

<text
   transform="scale(1,-1)"
   style="font-variant:normal;font-weight:normal;font-stretch:normal;font-size:14px;font-family:Arial;-inkscape-font-specification:ArialMT;writing-mode:lr-tb;fill:#4b6eb1;fill-opacity:1;fill-rule:nonzero;stroke:none"
   id="text414"
   x="223.74715"
   y="-616.02966"><tspan
     x="223.74715 227.63914 235.42314 243.20714 247.86916 250.97716"
     y="-616.02966"
     sodipodi:role="line"
     id="tspan412">fan-in</tspan></text>

<text
   transform="scale(1,-1)"
   style="font-variant:normal;font-weight:normal;font-stretch:normal;font-size:14px;font-family:Arial;-inkscape-font-specification:ArialMT;writing-mode:lr-tb;fill:#2c8e29;fill-opacity:1;fill-rule:nonzero;stroke:none"
   id="text418"
   x="477.15182"
   y="-616.33588"><tspan
     x="477.15182 481.04382 488.82782 496.61182 501.27383 509.05783 516.84186"
     y="-616.33588"
     sodipodi:role="line"
     id="tspan416">fan-out</tspan></text>

<text
   transform="scale(1,-1)"
   style="font-variant:normal;font-weight:normal;font-stretch:normal;font-size:14px;font-family:Arial;-inkscape-font-specification:ArialMT;writing-mode:lr-tb;fill:#544b4a;fill-opacity:1;fill-rule:nonzero;stroke:none"
   id="text422"
   x="338.79056"
   y="-526.07422"><tspan
     x="338.79056 346.57455 354.35858 362.14258 365.25058 369.91257 377.69656 384.69656 388.58856 396.37256"
     y="-526.07422"
     sodipodi:role="line"
     id="tspan420">undirected</tspan></text>

</g></g></g></svg>